<?xml version="1.0" encoding="utf-8"?>
<!-- Generator: Adobe Illustrator 27.5.0, SVG Export Plug-In . SVG Version: 6.00 Build 0)  -->
<svg version="1.1" xmlns="http://www.w3.org/2000/svg" xmlns:xlink="http://www.w3.org/1999/xlink" x="0px" y="0px"
	 viewBox="0 0 500 500" style="enable-background:new 0 0 500 500;" xml:space="preserve">
<g id="BACKGROUND">
	<rect style="fill:#FFFFFF;" width="500" height="500"/>
</g>
<g id="OBJECTS">
	<g>
		<g>
			<g>
				<path style="fill:#312A3C;" d="M73.999,403.028c0.56,1.761-1.963,4.424-3.355,5.532c-4.031,3.208-9.889,3.65-13.889,6.703
					c4.449,2.444,11.886,2.585,16.775,2.041c1.591-0.177,9.958-1.21,10.783-3.373c0.945-2.48-2.91-8.251-3.913-10.066
					C78.442,400.323,78.338,401.346,73.999,403.028z"/>
				<g>
					<path style="fill:#312A3C;" d="M114.809,402.969c-0.56,1.761,1.963,4.424,3.355,5.531c4.031,3.208,9.889,3.65,13.889,6.703
						c-4.449,2.444-11.886,2.585-16.775,2.041c-1.591-0.177-9.958-1.21-10.783-3.372c-0.945-2.48,2.91-8.251,3.913-10.066
						C110.367,400.264,110.471,401.287,114.809,402.969z"/>
					<path style="fill:#69B5A6;" d="M128.026,243.363c-2.419-2.038-17.882-3.064-33.451-3.081v-0.001c-0.063,0-0.126,0-0.19,0
						c-0.063,0-0.126,0-0.19,0v0.001c-15.569,0.017-31.032,1.043-33.451,3.081c-8.093,26.075-3.164,64.558-0.242,87.732
						c1.868,14.816,11.327,76.386,11.327,76.386s9.993,2.178,10.253-0.726c5.141-57.48,2.379-78.049,2.379-78.049
						c2.069-11.027,5.638-52.664,9.735-52.664c4.097,0,8.044,41.637,10.114,52.664c0,0-3.605,20.416,1.535,77.896
						c0.26,2.904,11.455,1.137,11.455,1.137s9.1-61.828,10.968-76.644C131.19,307.921,136.119,269.438,128.026,243.363z"/>
				</g>
			</g>
		</g>
		<g>
			<path style="fill:none;stroke:#312A3C;stroke-miterlimit:10;" d="M108.766,146.736c-1.87-0.96-3.324-0.946-3.324-0.946H84.314
				c0,0-0.958,0.028-2.303,0.424"/>
			<g>
				<path style="fill:#9A3E44;" d="M141.195,182.432l-14.824,4.87c1.322,7.095,3.421,12.036,5.361,21.244
					c0.627,2.977,1.398,3.846,1.96,7.932l11.106,4.572C145.649,218.866,142.326,188.6,141.195,182.432z"/>
				<path style="fill:#7DCABB;" d="M126.371,187.302c-5.481-16.354-12.163-37.077-8.522-36.63c0,0,13.676,4.588,17.417,10.317
					c1.665,2.55,4.396,11.88,7.277,21.443L126.371,187.302z"/>
			</g>
			<path style="fill:#A85858;" d="M107.139,146.582c-3.182-3.817-3.28-13.093-3.385-19.867c-3.874,0.025-14.335,0.025-18.209,0
				c-0.105,6.774-0.203,16.05-3.385,19.867c-3.394,4.072-21.572,8.627-20.965,9.2c4.431,4.081,18.655,27.387,32.985,27.431
				c14.643,0.045,29.396-23.261,33.924-27.431C128.712,155.209,110.534,150.654,107.139,146.582z"/>
			<path style="fill:#7DCABB;" d="M131.23,247.878c-1.03-19.229-4.679-58.733-3.586-71.067c0.549-6.198,0.565-21.031,0.565-21.031
				s-14.481-7.954-15.316-6.167c-2.101,4.498-34.949,4.424-37.016,0c-0.835-1.787-15.316,6.167-15.316,6.167
				s0.016,14.833,0.565,21.031c1.093,12.334-2.556,51.839-3.586,71.067C70.708,250.455,118.062,250.455,131.23,247.878z"/>
			<path style="fill:#7DCABB;" d="M68.758,188.394c-0.4-17.316-1.673-34.382-3.827-34.908c0,0-13.213,5.009-14.964,15.871
				c-0.291,1.806-2.302,11.572-1.552,25.035L68.758,188.394z"/>
			<g>
				<polygon style="fill:#312A3C;" points="111.509,262.138 71.601,255.994 81.177,200.576 121.086,206.72 				"/>
				<g>
					<polygon style="fill:#DFE1EB;" points="93.874,204.988 109.182,207.414 110.33,203.073 94.623,200.491 					"/>
					<path style="fill:#DFE1EB;" d="M102.605,199.247c-1.068,0-1.938,0.87-1.938,1.944c0,1.075,0.869,1.944,1.938,1.944
						c1.074,0,1.944-0.869,1.944-1.944C104.549,200.116,103.68,199.247,102.605,199.247z M102.605,201.781
						c-0.323,0-0.584-0.267-0.584-0.59s0.261-0.584,0.584-0.584c0.323,0,0.59,0.261,0.59,0.584S102.928,201.781,102.605,201.781z"/>
				</g>
			</g>
			<path style="fill:#9A3E44;" d="M98.693,240.341c-0.407,1.883,6.485,1.545,5.294,3.606c-1.41,0.926-11.517,4.003-10.484,6.309
				c0.659,1.471,6.017-1.902,8.291-1.544c-3.642,3.175-5.847,3.437-5.147,4.584c1.139,1.867,6.527-1.699,7.068-0.708
				c0.803,1.472-4.402,3.407-3.655,4.715c0.77,1.348,3.827-1.208,7.219-2.035c0.611,1.271-4.643,3.77-3.472,5.034
				c0.41,0.442,10.728-8.04,13.976-10.781c0,0,11.771-11.041,12.362-11.781c1.854-2.322-3.405-10.695-5.478-9.042
				c-3.783,3.015-8.426,12.325-15.825,11.093C106.281,239.363,99.027,238.8,98.693,240.341z"/>
			<path style="fill:#9A3E44;" d="M144.799,221.049c-2.894,7.433-17.886,19.854-17.886,19.854c-7.701-4.318-8.425-5.47-8.425-5.47
				l15.205-18.956"/>
			<g>
				<path style="fill:#A85858;" d="M103.713,243.637c0.254,1.91-6.589,1.017-5.568,3.167c1.331,1.037,11.156,4.918,9.942,7.133
					c-0.775,1.413-5.844-2.381-8.139-2.208c3.374,3.458,5.551,3.897,4.761,4.984c-1.285,1.769-6.368-2.22-6.987-1.275
					c-0.919,1.402,4.112,3.751,3.262,4.994c-0.876,1.282-3.717-1.513-7.031-2.611c-0.711,1.218,4.324,4.132,3.055,5.297
					c-0.444,0.408-10.044-8.879-13.061-11.873c0,0-12.077-9.275-12.606-10.06c-1.661-2.464,3.994-6.771,6.202-8.239
					c1.194-0.794,8.627,9.952,16.101,9.32C96.23,242.051,103.505,242.074,103.713,243.637z"/>
				<path style="fill:#A85858;" d="M50.165,193.695c0.358,6.416,3.901,22.809,4.825,30.911c0.726,6.37,16.351,16.582,23.849,22.685
					c1.53,1.245,12.189-1.954,7.385-7.459c-15.183-17.396-19.722-18.63-19.722-18.63l-3.213-31.248L50.165,193.695z"/>
			</g>
			<g>
				<g>
					<path style="fill:none;stroke:#312A3C;stroke-miterlimit:10;" d="M116.811,164.841c-0.501-12.048-4.872-16.477-8.045-18.105"/>
					<g>
						<path style="fill:none;stroke:#DFE1EB;stroke-miterlimit:10;" d="M113.63,176.35c0.016,3.061,0.406,6.015,1.188,7.83
							c0.533,1.237,2.242,1.102,2.979,1.095"/>
						<path style="fill:none;stroke:#312A3C;stroke-miterlimit:10;" d="M123.927,174.511c-1.682-5.279-4.671-10.355-7.116-9.671
							c-2.117,0.593-3.209,6.212-3.18,11.509"/>
						<path style="fill:none;stroke:#DFE1EB;stroke-miterlimit:10;" d="M121.638,184.836c0,0,3.14-0.265,3.4-1.293
							c0.524-2.075-0.017-5.596-1.111-9.031"/>
						<path style="fill:#FFFFFF;" d="M119.497,185.301c-0.04,0.808-0.487,1.443-0.997,1.417s-1.432-0.728-1.391-1.537
							c0.04-0.808,1.027-1.416,1.538-1.39C119.156,183.816,119.538,184.492,119.497,185.301z"/>
						<path style="fill:#FFFFFF;" d="M120.136,185.211c0.189,0.787,0.745,1.328,1.242,1.209c0.497-0.119,1.273-0.98,1.084-1.767
							c-0.189-0.787-1.271-1.202-1.768-1.083C120.197,183.689,119.947,184.424,120.136,185.211z"/>
					</g>
				</g>
				<g>
					<g>
						<path style="fill:#DFE1EB;" d="M82.958,182.432c0,2.873-2.329,5.202-5.202,5.202c-2.873,0-5.202-2.329-5.202-5.202
							c0-2.873,2.329-5.202,5.202-5.202C80.629,177.229,82.958,179.558,82.958,182.432z"/>
						<circle style="fill:none;stroke:#312A3C;stroke-miterlimit:10;" cx="77.756" cy="182.432" r="2.991"/>
					</g>
					<path style="fill:none;stroke:#312A3C;stroke-miterlimit:10;" d="M82.011,146.213c-3.811,1.12-10.739,5.187-7.808,19.905
						c1.738,8.727,2.681,13.277,2.681,13.277"/>
				</g>
			</g>
		</g>
		<g>
			<g>
				<path style="fill:#A85858;" d="M74.164,112.232c0,12.754,3.28,20.236,20.486,20.236c17.206,0,20.486-7.482,20.486-20.236
					C115.136,85.816,74.164,82.422,74.164,112.232z"/>
				<g>
					<path style="fill:#312A3C;" d="M84.333,131.259c6.107,2.879,13.217,2.711,19.598,0.842c0.478-0.14,0.272-0.895-0.206-0.748
						c-6.618,2.035-12.747,1.491-19.362-0.165C84.322,131.178,84.292,131.24,84.333,131.259L84.333,131.259z"/>
				</g>
			</g>
			<g>
				<path style="fill:#312A3C;" d="M89.107,112.204c0,1.108-0.539,2.005-1.203,2.005c-0.664,0-1.203-0.898-1.203-2.005
					s0.539-2.005,1.203-2.005C88.568,110.199,89.107,111.097,89.107,112.204z"/>
				<path style="fill:#312A3C;" d="M102.132,112.204c0,1.108-0.539,2.005-1.203,2.005c-0.665,0-1.203-0.898-1.203-2.005
					s0.539-2.005,1.203-2.005C101.594,110.199,102.132,111.097,102.132,112.204z"/>
				<g>
					<path style="fill:#312A3C;" d="M99.474,107.176c0.688-0.272,1.407-0.37,2.137-0.228c0.639,0.124,1.112,0.52,1.709,0.71
						c0.216,0.069,0.443-0.203,0.307-0.399c-0.888-1.275-3.122-1.125-4.363-0.58C98.986,106.802,99.187,107.29,99.474,107.176
						L99.474,107.176z"/>
				</g>
				<g>
					<path style="fill:#312A3C;" d="M90.036,106.68c-1.241-0.545-3.474-0.695-4.362,0.58c-0.136,0.194,0.089,0.468,0.307,0.399
						c0.597-0.19,1.07-0.586,1.709-0.71c0.731-0.142,1.45-0.043,2.138,0.228C90.11,107.288,90.318,106.804,90.036,106.68
						L90.036,106.68z"/>
				</g>
				<g>
					<path style="fill:#312A3C;" d="M91.688,121.255c1.241,1.495,4.401,1.85,5.191-0.349c0.098-0.274-0.267-0.43-0.454-0.264
						c-0.637,0.565-1.037,1.161-1.927,1.346c-0.992,0.206-1.953-0.192-2.646-0.897C91.745,120.982,91.593,121.142,91.688,121.255
						L91.688,121.255z"/>
				</g>
				<g>
					<path style="fill:#312A3C;" d="M94.641,108.423c-0.03,1.488-0.223,3.007-0.602,4.45c-0.214,0.816-0.505,1.626-0.869,2.386
						c-0.158,0.33-0.725,1.051-0.763,1.442c-0.104,1.082,1.245,1.397,2.104,1.715c0.103,0.038,0.173-0.128,0.075-0.177
						c-0.354-0.176-0.855-0.351-1.137-0.635c-0.867-0.872-0.437-1.091-0.058-1.84c0.351-0.692,0.647-1.412,0.879-2.153
						c0.54-1.726,0.628-3.394,0.409-5.188C94.677,108.399,94.641,108.397,94.641,108.423L94.641,108.423z"/>
				</g>
			</g>
			<g>
				<path style="fill:#312A3C;" d="M98.69,105.878c-0.66-3.278-1.319-6.555-1.978-9.833c-0.14,3.319,1.423,6.664,4.058,8.687
					c2.635,2.022,6.271,2.667,9.441,1.674c0.338-1.326,0.676-2.651,1.014-3.976c0.131,2.777,3.664,11.648,3.839,13.75
					c3.679-1.4,5.006-5.981,4.875-9.915c-0.251-7.529-4.187-14.848-10.329-19.209c-6.14-4.359-15.499-6.19-22.582-3.032
					c-6.473,2.886-3.622,11.92-0.267,16.299C89.541,103.952,94.124,106.074,98.69,105.878z"/>
				<path style="fill:#312A3C;" d="M77.779,104.152c-1.377,1.299-1.801,9.961-3.035,9.163c-10.966-5.234-4.61-17.419,2.296-23.262
					c5.956-4.418,7.787-0.724,7.247,3.982C83.878,97.601,80.147,102.515,77.779,104.152z"/>
			</g>
			<g>
				<g>
					<path style="fill:#A85858;" d="M114.61,106.5c2.024-0.652,3.888,0.675,4.378,2.569c1.219,4.717-3.252,8.178-6.451,10.727
						C112.009,117.828,111.506,107.498,114.61,106.5z"/>
					<g>
						<g>
							<path style="fill:#312A3C;" d="M113.776,114.065c0.237-1.148,0.521-2.338,1.208-3.312c0.723-1.024,1.669-1.297,2.786-1.699
								c0.209-0.075,0.232-0.383,0-0.449c-1.112-0.316-2.201,0.47-2.879,1.308c-0.933,1.152-1.22,2.639-1.415,4.07
								C113.451,114.174,113.735,114.266,113.776,114.065L113.776,114.065z"/>
						</g>
						<g>
							<path style="fill:#312A3C;" d="M115.376,110.475c0.457,0.233,0.818,0.607,1.002,1.091c0.076,0.198,0.121,0.408,0.129,0.619
								c0.009,0.23-0.038,0.365,0.082,0.569c0.073,0.124,0.264,0.16,0.366,0.047c0.355-0.395,0.055-1.139-0.18-1.542
								c-0.292-0.501-0.739-0.865-1.279-1.068C115.331,110.13,115.22,110.395,115.376,110.475L115.376,110.475z"/>
						</g>
					</g>
				</g>
				<g>
					<path style="fill:#A85858;" d="M74.691,106.5c-2.024-0.652-3.888,0.675-4.378,2.569c-1.219,4.717,3.252,8.178,6.451,10.727
						C77.292,117.828,77.794,107.498,74.691,106.5z"/>
					<g>
						<g>
							<path style="fill:#312A3C;" d="M75.824,113.983c-0.194-1.428-0.48-2.921-1.415-4.07c-0.68-0.836-1.766-1.624-2.879-1.308
								c-0.232,0.066-0.21,0.373,0,0.449c1.126,0.405,2.056,0.664,2.786,1.699c0.687,0.974,0.971,2.164,1.208,3.312
								C75.566,114.265,75.85,114.175,75.824,113.983L75.824,113.983z"/>
						</g>
						<g>
							<path style="fill:#312A3C;" d="M73.805,110.191c-0.541,0.203-0.987,0.566-1.279,1.068c-0.237,0.406-0.536,1.146-0.18,1.542
								c0.101,0.113,0.293,0.077,0.365-0.047c0.107-0.182,0.078-0.296,0.08-0.505c0.002-0.233,0.048-0.466,0.131-0.684
								c0.185-0.484,0.545-0.857,1.002-1.091C74.079,110.396,73.971,110.129,73.805,110.191L73.805,110.191z"/>
						</g>
					</g>
				</g>
			</g>
		</g>
	</g>
	<g>
		<path style="fill:#312A3C;" d="M249.632,94.764c3.515,5.081,5.403,11.31,6.131,17.596c0.728,6.286,0.349,12.663-0.325,18.957
			c-0.142,1.323-0.353,2.766-1.275,3.656c-0.803,0.775-1.953,0.936-3.027,1.051c-13.075,1.391-26.307,1.051-39.303-1.011
			c-1.367-8.886-1.398-18.009-0.091-26.907c0.621-4.226,1.615-8.569,4.149-11.868c3.276-4.267,8.681-6.097,13.824-6.059
			c5.143,0.038,10.14,1.703,15.048,3.352"/>
		<g>
			<g>
				<path style="fill:#312A3C;" d="M213.235,403.028c0.56,1.761-1.963,4.424-3.355,5.532c-4.031,3.208-9.889,3.65-13.889,6.703
					c4.449,2.444,11.886,2.585,16.775,2.041c1.591-0.177,9.958-1.21,10.783-3.373c0.945-2.48-2.91-8.251-3.913-10.066
					C217.678,400.323,217.574,401.346,213.235,403.028z"/>
				<g>
					<path style="fill:#312A3C;" d="M254.045,402.969c-0.56,1.761,1.963,4.424,3.355,5.531c4.031,3.208,9.889,3.65,13.889,6.703
						c-4.449,2.444-11.886,2.585-16.775,2.041c-1.591-0.177-9.958-1.21-10.783-3.372c-0.945-2.48,2.91-8.251,3.913-10.066
						C249.603,400.264,249.707,401.287,254.045,402.969z"/>
					<path style="fill:#E2D6D0;" d="M267.262,243.363c-2.418-2.038-17.882-3.064-33.451-3.081v-0.001c-0.063,0-0.126,0-0.19,0
						c-0.063,0-0.126,0-0.19,0v0.001c-15.569,0.017-31.033,1.043-33.451,3.081c-8.093,26.075-3.164,64.558-0.242,87.732
						c1.868,14.816,10.142,77.465,10.142,77.465s11.014,0.807,11.274-2.097c5.141-57.48,2.543-77.756,2.543-77.756
						c2.069-11.027,5.638-52.664,9.735-52.664c4.097,0,8.044,41.637,10.114,52.664c0,0-3.006,21.015,2.135,78.495
						c0.26,2.904,10.409,0.087,10.409,0.087s9.547-61.378,11.415-76.194C270.426,307.921,275.355,269.438,267.262,243.363z"/>
				</g>
			</g>
		</g>
		<g>
			<path style="fill:none;stroke:#312A3C;stroke-miterlimit:10;" d="M248.002,145.803c-1.87-0.96-3.324-0.946-3.324-0.946H223.55
				c0,0-0.958,0.028-2.303,0.424"/>
			<path style="fill:#CF776D;" d="M246.376,146.582c-3.182-3.817-3.28-13.093-3.385-19.867c-3.874,0.025-14.335,0.025-18.209,0
				c-0.105,6.774-0.203,16.05-3.385,19.867c-3.394,4.072-21.572,8.627-20.965,9.2c4.431,4.081,18.655,27.387,32.985,27.431
				c14.643,0.045,29.396-23.261,33.924-27.431C267.948,155.209,249.77,150.654,246.376,146.582z"/>
			<rect x="219.983" y="154.964" style="fill:#7DCABB;" width="28.019" height="88.404"/>
			<g>
				<path style="fill:#F2DFD4;" d="M267.356,240.282c0,0,21.505-2.19,22.399-6.658c0.518-2.587,0.002-6.673-1.532-8.549
					c-1.705-2.085-4.34-1.791-4.34-1.791c0.16-0.41-6.638-1.915-6.638-1.915c-1.113-15.566-1.388-58.309-2.741-60.38
					c-3.741-5.728-17.417-10.317-17.417-10.317L267.356,240.282z"/>
			</g>
			<g>
				<path style="fill:#F2DFD4;" d="M241.629,282.562c9.88-0.275,28.559-1.556,33.104-2.445c-1.03-19.229-8.946-90.972-7.853-103.306
					c0.549-6.198,0.565-21.031,0.565-21.031s-20.184-10.96-21.07-9.197C235.116,168.983,241.629,282.562,241.629,282.562z"/>
				<g>
					<g>
						<path style="fill:#3B2A42;" d="M251.806,229.326c4.244,7.145,11.212,12.833,19.547,14.159
							c0.641,0.102,0.926-0.803,0.274-0.994c-7.973-2.335-14.759-6.376-19.416-13.402
							C252.046,228.839,251.651,229.064,251.806,229.326L251.806,229.326z"/>
					</g>
				</g>
				<g>
					<g>
						<path style="fill:#3B2A42;" d="M250.448,149.052c0.808,1.342,4.143,5.247,4.063,6.747c-0.143,2.676-3.312,3.165-5.381,4.166
							c-0.471,0.228-0.444,0.976,0,1.212c1.867,0.991,4.612,2.043,3.775,4.45c-0.547,1.574-2.874,3.213-3.949,4.437
							c-4.141,4.716-6.807,10.156-8.423,16.205c-0.203,0.759,0.968,1.081,1.175,0.324c1.423-5.207,3.595-10.039,7.018-14.239
							c1.525-1.871,3.619-3.459,4.946-5.472c2.302-3.491-0.82-5.295-3.835-6.918c0,0.404,0,0.808,0,1.212
							c2.119-1.161,4.226-2.344,6.335-3.522c0.21-0.117,0.314-0.44,0.17-0.647c-1.884-2.7-3.768-5.399-5.653-8.099
							C250.589,148.764,250.353,148.895,250.448,149.052L250.448,149.052z"/>
					</g>
				</g>
				<g>
					<g>
						<path style="fill:#3B2A42;" d="M273.43,158.503c-9.012,6.227-11.182,22.217-9.279,32.226c0.071,0.374,0.635,0.271,0.645-0.087
							c0.284-10.435,0.032-24.431,8.805-31.918C273.721,158.621,273.562,158.412,273.43,158.503L273.43,158.503z"/>
					</g>
				</g>
				<g>
					<g>
						<path style="fill:#3B2A42;" d="M266.194,197.999c2.331,13.765,3.154,27.485,4.119,41.375c0.029,0.418,0.644,0.426,0.656,0
							c0.409-13.837-1.724-27.923-4.685-41.4C266.271,197.914,266.184,197.94,266.194,197.999L266.194,197.999z"/>
					</g>
				</g>
			</g>
			<g>
				<path style="fill:#F2DFD4;" d="M220.642,147.311c-1.352-1.435-20.845,8.469-20.845,8.469s0.016,14.833,0.565,21.031
					c1.093,12.334-6.556,84.775-7.586,104.004c5.306,1.038,23.158,1.658,35.091,1.859
					C227.867,282.674,233.886,161.368,220.642,147.311z"/>
				<g>
					<g>
						<path style="fill:#3B2A42;" d="M214.701,150.032c-0.908,1.362-4.724,5.238-3.172,7.203c0.543,0.688,1.673,0.639,2.446,0.765
							c1.317,0.215,2.411-0.457,2.864,0.788c0.302,0.829-3.342,5.434-3.875,6.26c-0.192,0.297-0.061,0.726,0.236,0.898
							c8.333,4.84,10.907,13.898,14.082,22.385c0.293,0.784,1.563,0.444,1.266-0.349c-2.017-5.39-3.696-11.088-6.919-15.918
							c-1.499-2.247-3.351-3.706-5.195-5.611c-1.221-1.261-1.309-0.653-1.337-2.289c-0.024-1.409,2.967-5.032,3.688-6.371
							c0.204-0.379-0.046-0.909-0.511-0.891c-2.062,0.079-5.837,1.04-5.72-1.929c0.05-1.277,2.141-3.511,2.796-4.564
							C215.606,149.998,214.967,149.633,214.701,150.032L214.701,150.032z"/>
					</g>
				</g>
			</g>
			<g>
				<g>
					<path style="fill:none;stroke:#312A3C;stroke-miterlimit:10;" d="M256.047,163.908c-0.501-12.048-4.872-16.477-8.045-18.105"/>
					<g>
						<path style="fill:none;stroke:#DFE1EB;stroke-miterlimit:10;" d="M252.867,175.417c0.016,3.061,0.406,6.015,1.188,7.83
							c0.533,1.237,2.242,1.102,2.979,1.095"/>
						<path style="fill:none;stroke:#312A3C;stroke-miterlimit:10;" d="M263.163,173.579c-1.681-5.279-4.671-10.355-7.116-9.671
							c-2.117,0.593-3.209,6.212-3.18,11.509"/>
						<path style="fill:none;stroke:#DFE1EB;stroke-miterlimit:10;" d="M260.874,183.903c0,0,3.14-0.265,3.399-1.293
							c0.524-2.075-0.016-5.596-1.111-9.031"/>
						<path style="fill:#FFFFFF;" d="M258.733,184.368c-0.04,0.808-0.487,1.443-0.997,1.417s-1.432-0.728-1.392-1.537
							c0.04-0.808,1.027-1.416,1.538-1.39S258.774,183.559,258.733,184.368z"/>
						<path style="fill:#FFFFFF;" d="M259.372,184.278c0.189,0.787,0.745,1.328,1.242,1.209c0.497-0.119,1.273-0.98,1.084-1.767
							c-0.189-0.787-1.271-1.202-1.768-1.083C259.433,182.757,259.183,183.491,259.372,184.278z"/>
					</g>
				</g>
				<g>
					<g>
						<circle style="fill:#DFE1EB;" cx="216.992" cy="181.499" r="5.202"/>
						<circle style="fill:none;stroke:#312A3C;stroke-miterlimit:10;" cx="216.992" cy="181.499" r="2.991"/>
					</g>
					<path style="fill:none;stroke:#312A3C;stroke-miterlimit:10;" d="M221.247,145.28c-3.811,1.12-10.739,5.187-7.808,19.905
						c1.738,8.727,2.681,13.277,2.681,13.277"/>
				</g>
			</g>
			<g>
				<path style="fill:#CF776D;" d="M180.375,225.629c4.796,5.584,11.801,11.713,15.944,15.957c1.378,1.411,12.332-0.553,8.187-6.568
					c-5.033-7.304-8.777-12.059-11.48-15.146"/>
				<g>
					<path style="fill:#F2DFD4;" d="M206.393,232.781c0,0-9.277,9.654-15.064,10.587l1.447,37.447l22.468-13.277L206.393,232.781z"
						/>
					<g>
						<g>
							<path style="fill:#3B2A42;" d="M209.176,227.461c-4.052,6.722-9.781,11.468-16.696,15.053
								c-0.709,0.367-0.087,1.362,0.615,1.052c7.165-3.165,12.836-9.001,16.566-15.821
								C209.836,227.427,209.363,227.15,209.176,227.461L209.176,227.461z"/>
						</g>
					</g>
				</g>
				<g>
					<path style="fill:#F2DFD4;" d="M192.93,217.897c0,0,5.114-20.403,9.378-39.156c3-13.193,2.673-24.834,1.859-25.255
						c0,0-14.021,1.759-18.279,11.903c-0.708,1.687-9.249,42.446-10.134,49.532c-0.307,2.459,3.426,11.346,5.992,15.209
						l14.767-7.934C192.822,216.752,192.93,217.897,192.93,217.897z"/>
					<g>
						<g>
							<path style="fill:#3B2A42;" d="M192.808,159.702c9.037,5.819,7.022,20.759,5.998,29.591
								c-0.046,0.394,0.523,0.405,0.645,0.087c3.183-8.315,2.048-24.935-6.406-30.083
								C192.785,159.14,192.555,159.54,192.808,159.702L192.808,159.702z"/>
						</g>
					</g>
				</g>
			</g>
		</g>
		<g>
			<g>
				<path style="fill:#CF776D;" d="M213.4,112.232c0,12.754,3.28,20.236,20.486,20.236c17.206,0,20.486-7.482,20.486-20.236
					C254.372,85.816,213.4,82.422,213.4,112.232z"/>
				<g>
					<path style="fill:#312A3C;" d="M223.57,131.259c6.107,2.879,13.217,2.711,19.598,0.842c0.478-0.14,0.272-0.895-0.206-0.748
						c-6.618,2.035-12.747,1.491-19.362-0.165C223.559,131.178,223.528,131.24,223.57,131.259L223.57,131.259z"/>
				</g>
			</g>
			<g>
				<path style="fill:#312A3C;" d="M228.343,112.204c0,1.108-0.539,2.005-1.203,2.005c-0.664,0-1.203-0.898-1.203-2.005
					s0.539-2.005,1.203-2.005C227.804,110.199,228.343,111.097,228.343,112.204z"/>
				<path style="fill:#312A3C;" d="M241.368,112.204c0,1.108-0.539,2.005-1.203,2.005s-1.203-0.898-1.203-2.005
					s0.539-2.005,1.203-2.005S241.368,111.097,241.368,112.204z"/>
				<g>
					<path style="fill:#312A3C;" d="M238.71,107.176c0.688-0.272,1.406-0.37,2.137-0.228c0.639,0.124,1.112,0.52,1.709,0.71
						c0.216,0.069,0.443-0.203,0.307-0.399c-0.888-1.275-3.122-1.125-4.363-0.58C238.222,106.802,238.423,107.29,238.71,107.176
						L238.71,107.176z"/>
				</g>
				<g>
					<path style="fill:#312A3C;" d="M229.272,106.68c-1.241-0.545-3.474-0.695-4.362,0.58c-0.136,0.194,0.089,0.468,0.307,0.399
						c0.597-0.19,1.07-0.586,1.709-0.71c0.731-0.142,1.45-0.043,2.138,0.228C229.346,107.288,229.554,106.804,229.272,106.68
						L229.272,106.68z"/>
				</g>
				<g>
					<path style="fill:#312A3C;" d="M230.924,121.255c1.241,1.495,4.401,1.85,5.191-0.349c0.098-0.274-0.267-0.43-0.454-0.264
						c-0.637,0.565-1.037,1.161-1.927,1.346c-0.992,0.206-1.953-0.192-2.646-0.897C230.981,120.982,230.83,121.142,230.924,121.255
						L230.924,121.255z"/>
				</g>
				<g>
					<path style="fill:#312A3C;" d="M233.877,108.423c-0.03,1.488-0.223,3.007-0.602,4.45c-0.214,0.816-0.505,1.626-0.869,2.386
						c-0.158,0.33-0.725,1.051-0.763,1.442c-0.104,1.082,1.245,1.397,2.104,1.715c0.103,0.038,0.173-0.128,0.075-0.177
						c-0.354-0.176-0.855-0.351-1.137-0.635c-0.867-0.872-0.437-1.091-0.058-1.84c0.351-0.692,0.647-1.412,0.879-2.153
						c0.54-1.726,0.628-3.394,0.409-5.188C233.913,108.399,233.877,108.397,233.877,108.423L233.877,108.423z"/>
				</g>
			</g>
			<path style="fill:#312A3C;" d="M214.447,104.786c0.902,0.624,2.071,0.659,3.167,0.671c3.016,0.035,6.031,0.071,9.046,0.106
				c0.445-1.65,0.889-3.3,1.334-4.949c0.65,1.633,1.3,3.267,1.95,4.9c3.03-0.099,6.06-0.198,9.089-0.297
				c0.729-2.278,1.458-4.555,2.187-6.833c0.71,2.184,1.42,4.368,2.13,6.552c3.295,0.074,6.59,0.148,9.885,0.223
				c1.291-3.994-0.092-8.535-2.843-11.705c-2.752-3.17-6.692-5.11-10.741-6.217c-4.811-1.315-10.018-1.538-14.743,0.057
				c-3.752,1.267-7.303,3.808-9.344,7.251C214.162,96.912,211.525,102.765,214.447,104.786z"/>
			<path style="fill:#312A3C;" d="M250.916,102.458c-0.052,3.667-0.104,7.334-0.156,11.002c1.3,0.435,2.893,0.817,3.91-0.103
				c0.629-0.569,0.816-1.472,0.91-2.315c0.366-3.275-1.207-11.731-4.499-16.719"/>
			<path style="fill:#312A3C;" d="M215.892,102.458c0.052,3.667,0.104,7.334,0.156,11.002c-1.3,0.435-2.893,0.817-3.91-0.103
				c-0.629-0.569-0.816-1.472-0.91-2.315c-0.366-3.275,1.207-11.731,4.499-16.719"/>
			<g>
				
					<rect x="220.43" y="108.746" style="fill:none;stroke:#312A3C;stroke-width:0.5;stroke-miterlimit:10;" width="11.012" height="6.916"/>
				
					<rect x="235.277" y="108.746" style="fill:none;stroke:#312A3C;stroke-width:0.5;stroke-miterlimit:10;" width="11.012" height="6.916"/>
				
					<line style="fill:none;stroke:#312A3C;stroke-width:0.5;stroke-miterlimit:10;" x1="231.442" y1="110.602" x2="235.499" y2="110.602"/>
				
					<line style="fill:none;stroke:#312A3C;stroke-width:0.5;stroke-miterlimit:10;" x1="246.289" y1="109.666" x2="253.542" y2="109.666"/>
				
					<line style="fill:none;stroke:#312A3C;stroke-width:0.5;stroke-miterlimit:10;" x1="213.364" y1="109.666" x2="220.617" y2="109.666"/>
			</g>
			<g>
				<g>
					<path style="fill:#CF776D;" d="M253.846,106.5c2.024-0.652,3.888,0.675,4.378,2.569c1.219,4.717-3.252,8.178-6.451,10.727
						C251.245,117.828,250.743,107.498,253.846,106.5z"/>
					<g>
						<g>
							<path style="fill:#312A3C;" d="M253.012,114.065c0.237-1.148,0.521-2.338,1.208-3.312c0.723-1.024,1.669-1.297,2.786-1.699
								c0.209-0.075,0.232-0.383,0-0.449c-1.112-0.316-2.201,0.47-2.879,1.308c-0.933,1.152-1.221,2.639-1.415,4.07
								C252.687,114.174,252.971,114.266,253.012,114.065L253.012,114.065z"/>
						</g>
						<g>
							<path style="fill:#312A3C;" d="M254.612,110.475c0.457,0.233,0.818,0.607,1.002,1.091c0.076,0.198,0.121,0.408,0.129,0.619
								c0.009,0.23-0.038,0.365,0.082,0.569c0.073,0.124,0.264,0.16,0.365,0.047c0.355-0.395,0.055-1.139-0.18-1.542
								c-0.292-0.501-0.739-0.865-1.279-1.068C254.567,110.13,254.456,110.395,254.612,110.475L254.612,110.475z"/>
						</g>
					</g>
				</g>
				<g>
					<path style="fill:#CF776D;" d="M213.927,106.5c-2.024-0.652-3.888,0.675-4.378,2.569c-1.219,4.717,3.252,8.178,6.451,10.727
						C216.528,117.828,217.03,107.498,213.927,106.5z"/>
					<g>
						<g>
							<path style="fill:#312A3C;" d="M215.06,113.983c-0.194-1.428-0.48-2.921-1.415-4.07c-0.68-0.836-1.766-1.624-2.879-1.308
								c-0.232,0.066-0.21,0.373,0,0.449c1.126,0.405,2.056,0.664,2.786,1.699c0.687,0.974,0.971,2.164,1.208,3.312
								C214.802,114.265,215.086,114.175,215.06,113.983L215.06,113.983z"/>
						</g>
						<g>
							<path style="fill:#312A3C;" d="M213.041,110.191c-0.541,0.203-0.987,0.566-1.279,1.068c-0.236,0.406-0.536,1.146-0.18,1.542
								c0.101,0.113,0.293,0.077,0.365-0.047c0.107-0.182,0.078-0.296,0.08-0.505c0.002-0.233,0.048-0.466,0.131-0.684
								c0.185-0.484,0.545-0.857,1.002-1.091C213.315,110.396,213.207,110.129,213.041,110.191L213.041,110.191z"/>
						</g>
					</g>
				</g>
			</g>
		</g>
		<g>
			<g>
				<polygon style="fill:#312A3C;" points="275.929,225.39 262.675,187.249 316.128,169.767 329.382,207.908 				"/>
				<g>
					<polygon style="fill:#DFE1EB;" points="318.173,183.053 323.196,197.714 327.569,196.698 322.498,181.609 					"/>
					<path style="fill:#DFE1EB;" d="M327.334,188.08c-0.5-0.944-1.675-1.305-2.625-0.802c-0.949,0.503-1.311,1.678-0.811,2.622
						c0.503,0.949,1.678,1.311,2.628,0.808C327.476,190.205,327.837,189.029,327.334,188.08z M325.095,189.266
						c-0.151-0.285-0.037-0.641,0.248-0.792c0.285-0.151,0.638-0.043,0.789,0.243c0.151,0.285,0.046,0.643-0.24,0.795
						S325.246,189.551,325.095,189.266z"/>
				</g>
			</g>
			<g>
				<path style="fill:#CF776D;" d="M305.716,219.931c3.22-3.57,3.089-14.247,1.346-14.166c-1.631,0.076-1.447,6.896-2.609,9.084
					c-0.984-2.667-2.428-11.757-3.586-10.974c-1.167,0.789-0.599,8.703-0.411,11.974c-1.178-3.286-2.534-11.311-3.933-10.516
					c-1.633,0.929,0.734,11.507-0.991,13.007c-0.844,0.733-3.341-6.993-5.202-6.282c-1.657,0.634,1.643,7.424,1.434,7.891
					c-1.783,3.97-9.691,2.824-12.32,5.689c-1.259,1.372,1.135,8.237,4.44,7.141C290.057,230.734,300.627,225.575,305.716,219.931z"
					/>
				<g>
					<g>
						<path style="fill:#3B2A42;" d="M279.305,225.037c-0.613,3.949,1.514,9.85,6.077,10.488c0.32,0.045,0.478-0.315,0.217-0.514
							c-1.696-1.294-3.272-2.205-4.489-4.053c-1.162-1.763-1.659-3.786-1.528-5.883
							C279.591,224.918,279.329,224.879,279.305,225.037L279.305,225.037z"/>
					</g>
				</g>
			</g>
		</g>
	</g>
	<g>
		<g>
			<path style="fill:#312A3C;" d="M387.589,402.865c0.566,1.781-1.985,4.473-3.392,5.594c-4.076,3.244-10,3.691-14.045,6.778
				c4.5,2.471,12.02,2.614,16.964,2.064c1.609-0.179,10.07-1.223,10.904-3.411c0.956-2.507-2.943-8.344-3.957-10.179
				C392.081,400.13,391.976,401.164,387.589,402.865z"/>
			<path style="fill:#312A3C;" d="M430.228,402.865c-0.566,1.781,1.985,4.473,3.392,5.594c4.077,3.244,10,3.691,14.045,6.778
				c-4.499,2.471-12.02,2.614-16.963,2.064c-1.609-0.179-10.07-1.223-10.904-3.411c-0.956-2.507,2.943-8.344,3.957-10.179
				C425.735,400.13,425.84,401.164,430.228,402.865z"/>
			<path style="fill:#E2D6D0;" d="M443.631,241.404c-4.931-4.155-63.49-4.155-68.421,0c-8.184,26.369-3.2,65.285-0.245,88.719
				c1.889,14.983,6.965,30.118,9.912,77.056c0,0,12.982,4.365,13.57,1.475c11.921-58.578,5.544-81.827,5.544-81.827
				c2.093-11.151,1.288-47.719,5.431-47.719s3.338,36.568,5.431,47.719c0,0-6.377,23.248,5.544,81.827
				c0.588,2.889,13.57-1.475,13.57-1.475c2.947-46.938,8.023-62.073,9.912-77.056C446.831,306.688,451.815,267.772,443.631,241.404z
				"/>
		</g>
		<g>
			<g>
				<g>
					<path style="fill:#F2DFD4;" d="M358.502,177.992c3.867,3.728,8.108,7.972,8.667,9.178c0,0,4.045-26.194,11.692-33.014
						c3.12-2.783,8.622-3.489,10.228,2.706c2.415,9.315-10.549,49.298-16.091,49.044c-7.363-0.337-15.189-9.716-21.421-20.284
						L358.502,177.992z"/>
					<g>
						<g>
							<path style="fill:#3B2A42;" d="M366.253,186.719c1.952,2.106,3.517,4.477,4.543,7.167c0.853,2.235,0.993,4.517,1.55,6.811
								c0.144,0.594,0.969,0.418,1.013-0.137c0.412-5.202-3.095-10.799-6.641-14.304
								C366.416,185.957,365.967,186.41,366.253,186.719L366.253,186.719z"/>
						</g>
					</g>
					<g>
						<g>
							<path style="fill:#3B2A42;" d="M367.73,187.327c2.157-0.122,4.243,0.398,6.056,1.594c1.934,1.275,2.779,2.982,3.987,4.852
								c0.152,0.236,0.465,0.075,0.428-0.181c-0.656-4.533-6.39-7.185-10.472-6.922C367.311,186.698,367.306,187.351,367.73,187.327
								L367.73,187.327z"/>
						</g>
					</g>
				</g>
				<path style="fill:#FFA08C;" d="M351.577,185.622c-1.539-2.609-2.98-5.291-4.294-7.927c1.759-2.751,1.586-4.692,4.639-5.922
					c0,0,3.142,2.905,6.579,6.218L351.577,185.622z"/>
			</g>
			<path style="fill:#FFA08C;" d="M443.15,157.866c-10.235-17.671-25.413,8.073-24.667-28.561c-0.014,0-0.032,0-0.047,0c0,0,0,0,0,0
				c-3.777,0.025-14.123,0.027-18.029,0c0.726,36.67-14.365,10.923-24.623,28.617c-1.736,5.834,19.808,21.493,34.072,21.064v0.018
				C424.161,178.777,444.833,163.605,443.15,157.866z"/>
			<g>
				<polygon style="fill:#65B2CA;" points="419.179,154.154 419.179,164.432 410.22,173.291 401.045,164.432 399.199,154.154 				
					"/>
				<g>
					<polygon style="fill:#65CBE1;" points="397.994,146.349 408.546,153.326 401.696,161.368 391.483,151.411 					"/>
					<polygon style="fill:#65CBE1;" points="421.342,146.349 410.789,153.326 417.64,161.368 427.853,151.411 					"/>
				</g>
			</g>
			<g>
				<path style="fill:#F2DFD4;" d="M443.71,221.049c-0.08-0.437,0.516-58.713,0.829-61.756c-2.18-5.385-4.243-9.619-14.216-10.138
					c-0.363-0.019-4.341-1.844-4.814-1.702c-2.045,0.616-15.654,22.6-15.654,22.6s-13.609-21.984-15.654-22.6
					c-0.473-0.142-4.451,1.683-4.814,1.702c-9.973,0.518-12.036,4.753-14.216,10.138c0.312,3.044,0.908,61.319,0.829,61.756
					c-1.061,5.804-11.329,46.146-6.967,50.496c1.833,1.828,19.128,2.847,34.695,3.057c1.807,0.025,3.633-27.276,5.462-27.273
					c1.773,0.003,3.548,27.309,5.309,27.291c16.142-0.164,34.288-1.189,36.179-3.075
					C455.039,267.196,444.771,226.853,443.71,221.049z"/>
				<g>
					<g>
						<path style="fill:#3B2A42;" d="M378.772,153.014c-2.904,9.225-3.163,18.818-0.081,28.042c0.133,0.398,0.744,0.237,0.633-0.174
							c-2.503-9.274-2.827-18.475-0.28-27.793C379.091,152.914,378.826,152.842,378.772,153.014L378.772,153.014z"/>
					</g>
				</g>
				<g>
					<g>
						<path style="fill:#3B2A42;" d="M390.345,148.7c0.311,2.642,0.622,5.284,0.933,7.926c0.026,0.219,0.157,0.37,0.386,0.386
							c0.791,0.056,1.583,0.112,2.375,0.168c0.882,0.063,2.213,0.528,1.914-0.257c0.387,1.016-0.716,3.873-0.91,4.964
							c-0.046,0.26,0.07,0.457,0.314,0.554c3.976,1.576,9.78,3.223,12.754,6.44c0.329,0.356,0.853-0.174,0.53-0.53
							c-2.5-2.76-7.058-4.21-10.394-5.658c-0.576-0.25-1.151-0.512-1.737-0.74c-0.687-0.268-0.759-0.579-0.573,0.032
							c-0.348-1.142,0.695-3.712,0.908-4.964c0.05-0.294-0.12-0.554-0.432-0.568c-1.17-0.052-2.351-0.058-3.518-0.156
							c-1.348-0.114-0.811,0.35-1.037-1.005c-0.369-2.212-0.641-4.444-0.961-6.664C390.852,148.315,390.308,148.385,390.345,148.7
							L390.345,148.7z"/>
					</g>
				</g>
				<g>
					<g>
						<path style="fill:#3B2A42;" d="M410.024,167.966c-0.764,26.443-1.018,52.89-1.461,79.339c-0.01,0.606,0.908,0.6,0.938,0
							c1.285-26.445,1.129-52.871,1.086-79.339C410.585,167.604,410.034,167.605,410.024,167.966L410.024,167.966z"/>
					</g>
				</g>
				<g>
					<g>
						<path style="fill:#3B2A42;" d="M428.812,148.626c-0.316,2.192-0.434,4.517-0.961,6.664c-0.342,1.392,0.426,0.887-1.037,1.005
							c-1.167,0.094-2.348,0.104-3.518,0.156c-0.313,0.014-0.482,0.274-0.432,0.568c0.217,1.278,1.189,3.58,0.871,4.77
							c-0.061,0.229,0.548-0.53-0.344,0.082c-0.516,0.354-1.372,0.579-1.929,0.821c-3.344,1.45-7.89,2.893-10.394,5.658
							c-0.323,0.357,0.201,0.886,0.53,0.53c2.974-3.217,8.777-4.863,12.754-6.44c0.243-0.096,0.361-0.291,0.314-0.554
							c-0.192-1.08-1.284-3.966-0.91-4.964c-0.291,0.776,0.66,0.346,1.52,0.285c0.923-0.065,1.846-0.131,2.769-0.196
							c0.227-0.016,0.36-0.165,0.386-0.386c0.311-2.642,0.622-5.284,0.933-7.926C429.401,148.389,428.857,148.312,428.812,148.626
							L428.812,148.626z"/>
					</g>
				</g>
				<g>
					<path style="fill:#3B2A42;" d="M413.634,176.546c0,0.855-0.693,1.547-1.547,1.547c-0.854,0-1.547-0.693-1.547-1.547
						c0-0.854,0.693-1.547,1.547-1.547C412.941,174.999,413.634,175.692,413.634,176.546z"/>
				</g>
				<g>
					<path style="fill:#3B2A42;" d="M413.634,194.993c0,0.855-0.693,1.547-1.547,1.547c-0.854,0-1.547-0.693-1.547-1.547
						c0-0.855,0.693-1.547,1.547-1.547C412.941,193.446,413.634,194.138,413.634,194.993z"/>
				</g>
				<g>
					<path style="fill:#3B2A42;" d="M413.634,213.44c0,0.855-0.693,1.547-1.547,1.547c-0.854,0-1.547-0.693-1.547-1.547
						c0-0.854,0.693-1.547,1.547-1.547C412.941,211.893,413.634,212.585,413.634,213.44z"/>
				</g>
				<g>
					<path style="fill:#3B2A42;" d="M413.634,231.887c0,0.855-0.693,1.547-1.547,1.547c-0.854,0-1.547-0.693-1.547-1.547
						c0-0.855,0.693-1.547,1.547-1.547C412.941,230.339,413.634,231.032,413.634,231.887z"/>
				</g>
				<g>
					<g>
						<path style="fill:#3B2A42;" d="M389.644,233.934c-5.057,3.66-11.569,9.272-17.942,10.019
							c-1.139,0.134-0.942,1.742,0.212,1.565c6.785-1.039,12.992-6.833,18.241-10.922
							C390.529,234.305,390.032,233.653,389.644,233.934L389.644,233.934z"/>
					</g>
				</g>
				<g>
					<g>
						<path style="fill:#3B2A42;" d="M427.223,234.4c5.325,5.542,12.899,11.217,20.783,12.014c0.493,0.05,0.726-0.764,0.26-0.961
							c-3.483-1.473-7.121-2.374-10.515-4.113c-3.75-1.921-7.126-4.395-10.197-7.272C427.335,233.863,427.013,234.182,427.223,234.4
							L427.223,234.4z"/>
					</g>
				</g>
			</g>
			<g>
				<path style="fill:#65B2CA;" d="M347.994,165.345c-0.133,0.891-8.283-12.019-11.73-10.775c-0.838,0.302-0.341,1.767-0.524,2.061
					c-0.563,0.902-0.27,2.486,2.023,5.064c0,0-0.047,0.993,0.735,2.227c3.997,6.307,9.887,17.879,10.596,21.7
					c0,0,7.832-7.124,7.721-9.246c-0.09-1.707-2.833-3.586-3.923-7.392c-1.315-4.594-4.329-9.607-5.257-10.653
					C344.294,154.56,348.109,164.578,347.994,165.345"/>
				<g>
					<g>
						<path style="fill:#3B2A42;" d="M347.793,165.453c-0.031,2.417,0.832,5.121,2.828,6.616c0.278,0.208,0.519-0.215,0.341-0.442
							c-1.497-1.908-2.565-3.671-2.606-6.174C348.35,165.092,347.798,165.091,347.793,165.453L347.793,165.453z"/>
					</g>
				</g>
				<g>
					<g>
						<path style="fill:#3B2A42;" d="M337.854,161.72c0.699-1.911,3.647,2.505,4.018,3.063c1.124,1.687,1.938,3.595,3.088,5.248
							c0.141,0.202,0.527,0.086,0.428-0.181c-0.978-2.642-3.064-5.453-4.97-7.516c-0.638-0.69-2.211-2.28-2.746-0.664
							C337.635,161.786,337.813,161.832,337.854,161.72L337.854,161.72z"/>
					</g>
				</g>
				<g>
					<g>
						<path style="fill:#3B2A42;" d="M335.717,156.671c4.167,2.991,7.142,6.818,10.033,10.996c0.207,0.299,0.642,0.044,0.486-0.284
							c-2.198-4.614-6.171-8.165-10.471-10.793C335.712,156.558,335.668,156.637,335.717,156.671L335.717,156.671z"/>
					</g>
				</g>
				<g>
					<g>
						<path style="fill:#3B2A42;" d="M336.872,154.536c4.424,3.222,7.143,7.898,10.168,12.336c0.205,0.301,0.64,0.043,0.486-0.284
							c-2.283-4.83-6.074-9.288-10.606-12.133C336.868,154.422,336.825,154.501,336.872,154.536L336.872,154.536z"/>
					</g>
				</g>
			</g>
			<g>
				<path style="fill:#FFA08C;" d="M389.386,197.411c-4.193-1.768-9.399-4.936-9.399-4.936l2.042-9.617
					c1.078,0.334,6.104,2.341,8.596,2.765L389.386,197.411z"/>
				<g>
					<path style="fill:#65CBE1;" d="M361.883,183.431c-0.555-1.114-2.871-2.357-3.937-3.193c-0.823-0.645-2.624-1.67-2.975-2.79
						c-0.206-0.657-0.082-0.765,0.587-1.068c1.238-0.56,2.042,0.1,3.138,0.61c1.243,0.579,3.534,1.753,4.645,0.485
						c0.536-0.612,0.575-1.514,0.25-2.219c-0.633-1.371-2.4-2.242-3.691-2.895c2.26-1.252,5.443-1.306,7.989-1.59
						c1.696-0.189,3.776,1.785,4.514,3.283c0.549,1.115,0.597,2.399,1.222,3.503c0.516,0.911,8.792,4.515,10.438,5.491
						c-0.439,2.012-1.539,9.88-4.075,10.022c-1.525,0.085-7.992-4.496-9.739-5.202c-1.995-0.807-3.914-1.359-5.726-2.568
						C363.743,184.781,363.133,184.111,361.883,183.431z"/>
					<g>
						<path style="fill:#65CBE1;" d="M358.916,171.699c-1.2,0.462-2.256,1.347-3.45,1.853c-0.887,0.376-1.898,0.799-2.756,0.575
							c-2.077-0.543,2.597-3.961,3.727-4.438c4.35-1.837,8.497,0.562,8.379,1.205C364.693,171.563,360.421,171.326,358.916,171.699z
							"/>
						<path style="fill:#65CBE1;" d="M370.283,178.135c-0.398-0.69-2.297-0.81-3.145-0.633c-1.113,0.232-1.924,1.032-2.736,1.784
							c-1.13,1.046-3.466,3.356-4.373,2.743c-1.545-1.042,4.009-8.689,7.899-8.535c1.088,0.043,2.589,0.349,3.015,1.415
							C371.339,175.9,371.306,177.628,370.283,178.135z"/>
						<path style="fill:#65CBE1;" d="M362.189,177.69c-1.536,1.2-3.733,4.748-4.884,4.317c-1.73-0.648,1.556-5.416,3.126-7.589
							c1.561-2.161,2.114-2.717,4.766-2.821c0.965-0.038,4.269,0.094,4.925,1.125c0.394,0.618-0.22,1.939-0.623,2.366
							c-0.715,0.757-1.831,0.64-2.763,0.834C364.672,176.352,363.179,177.169,362.189,177.69z"/>
						<path style="fill:#65CBE1;" d="M361.904,173.017c-1.107-0.127-1.58-0.238-2.306,0.678c-0.772,0.974-1.459,2.018-2.255,2.977
							c-0.364,0.439-1.474,2.115-2.144,1.582c-1.208-0.961,0.841-4.225,1.34-5.074c1.417-2.411,2.999-5.01,6.074-4.52
							c1.371,0.218,5.199,1.466,7.852,3.091C373.019,173.314,362.666,175.137,361.904,173.017z"/>
						<g>
							<g>
								<path style="fill:#3B2A42;" d="M360.388,180.002c0.709-1.461,1.731-3.617,3.378-4.178c1.623-0.553,3.595-0.197,5.266-0.353
									c0.289-0.027,0.412-0.498,0.075-0.553c-1.688-0.272-4.449-0.272-6.026,0.559c-1.49,0.785-2.379,2.899-3.016,4.335
									C359.968,180.029,360.282,180.221,360.388,180.002L360.388,180.002z"/>
							</g>
						</g>
						<g>
							<g>
								<path style="fill:#3B2A42;" d="M361.366,173.358c0.974-0.935,1.715-1.309,3.066-1.175c1.081,0.107,2.168,0.413,3.255,0.345
									c0.308-0.019,0.392-0.464,0.075-0.552c-1.264-0.353-2.961-0.476-4.266-0.325c-1.109,0.129-1.593,0.758-2.262,1.575
									C361.158,173.317,361.277,173.443,361.366,173.358L361.366,173.358z"/>
							</g>
						</g>
						<g>
							<g>
								<path style="fill:#3B2A42;" d="M356.766,173.083c1.016-1.548,2.338-3.078,3.923-4.07c0.257-0.161,0.032-0.541-0.237-0.405
									c-1.713,0.868-2.903,2.776-3.767,4.427C356.657,173.089,356.733,173.133,356.766,173.083L356.766,173.083z"/>
							</g>
						</g>
						<g>
							<g>
								<path style="fill:#3B2A42;" d="M365.051,178.697c0.675,0.629,1.494,1.214,1.774,2.137c0.263,0.867,0.305,1.736,0.673,2.608
									c0.466,1.104,1.197,2.27,2.476,2.45c0.28,0.039,0.539-0.376,0.217-0.514c-1.82-0.78-2.116-2.687-2.636-4.404
									c-0.104-0.343-0.166-0.852-0.425-1.122c-0.503-0.524-1.447-0.688-2.008-1.227
									C365.075,178.582,365.004,178.653,365.051,178.697L365.051,178.697z"/>
							</g>
						</g>
					</g>
				</g>
				<g>
					<path style="fill:#F2DFD4;" d="M389.386,183.87c10.118,1.719,28.645,3.848,29.238,3.719c0,0,11.061-34.062,17.685-36.816
						c0,0,7.963,5.003,7.962,11.403c-0.001,10.744-11.866,47.513-21.848,45.335c-6.538-1.427-25.698-4.319-36.928-9.054
						L389.386,183.87z"/>
					<g>
						<g>
							<path style="fill:#3B2A42;" d="M432.853,168.637c-6.823,2.633-12.886,11.775-13.946,18.789
								c-0.043,0.286,0.361,0.53,0.514,0.217c1.644-3.371,2.992-6.85,5.16-9.94c2.408-3.433,5.634-5.855,8.321-8.983
								C432.931,168.687,432.904,168.618,432.853,168.637L432.853,168.637z"/>
						</g>
					</g>
					<g>
						<g>
							<path style="fill:#3B2A42;" d="M428.474,163.631c-3.477,5.962-6.619,12.412-8.026,19.204
								c-0.11,0.533,0.636,0.738,0.814,0.224c2.272-6.566,4.404-12.986,7.698-19.144
								C429.13,163.596,428.657,163.317,428.474,163.631L428.474,163.631z"/>
						</g>
					</g>
					<g>
						<g>
							<path style="fill:#3B2A42;" d="M418.792,187.631c1.846,0.062,3.558,0.661,5.018,1.8c1.426,1.113,2.02,2.496,2.92,3.99
								c0.287,0.476,0.946,0.146,0.857-0.361c-0.658-3.761-5.346-6.058-8.795-5.992C418.429,187.076,418.43,187.619,418.792,187.631
								L418.792,187.631z"/>
						</g>
					</g>
					<g>
						<g>
							<path style="fill:#3B2A42;" d="M418.647,188.563c1.577,1.136,2.921,2.528,3.935,4.192c0.944,1.549,1.324,3.244,2.004,4.897
								c0.203,0.494,1.038,0.496,1.013-0.137c-0.154-3.891-3.498-7.55-6.62-9.519C418.615,187.767,418.31,188.321,418.647,188.563
								L418.647,188.563z"/>
						</g>
					</g>
					<g>
						<g>
							<path style="fill:#3B2A42;" d="M389.949,185.391c9.119,1.001,18.39,2.565,27.556,2.876c0.362,0.012,0.458-0.583,0.087-0.645
								c-9.072-1.498-18.486-1.794-27.643-2.607C389.707,184.995,389.712,185.365,389.949,185.391L389.949,185.391z"/>
						</g>
					</g>
					<g>
						<g>
							<path style="fill:#3B2A42;" d="M442.382,172.365c-3.332,12.412-8.563,23.719-14.715,34.952
								c-0.291,0.531,0.488,0.984,0.81,0.473c6.775-10.747,11.304-23.016,14.357-35.301
								C442.906,172.197,442.46,172.073,442.382,172.365L442.382,172.365z"/>
						</g>
					</g>
					<g>
						<g>
							<path style="fill:#3B2A42;" d="M387.323,198.336c11.303,5.155,24.732,9.804,37.325,9.504
								c0.354-0.008,0.465-0.578,0.087-0.645c-6.033-1.064-12.109-1.471-18.094-2.908c-6.533-1.569-12.849-3.791-18.987-6.518
								C387.273,197.6,386.937,198.16,387.323,198.336L387.323,198.336z"/>
						</g>
					</g>
				</g>
			</g>
		</g>
		<g>
			<path style="fill:#3B2A42;" d="M390.991,108.217c-3.529,0.258-7.026-2.472-7.633-5.959c-0.606-3.486,1.765-7.237,5.174-8.185
				c0.151-2.374,1.707-4.605,3.883-5.567c2.175-0.962,4.873-0.612,6.73,0.874c1.212-2.869,4.185-4.904,7.297-4.996
				c3.113-0.092,6.201,1.764,7.58,4.556c1.237-2.522,4.364-3.946,7.078-3.223c2.714,0.722,4.719,3.513,4.538,6.315
				c0.97-2.281,4.687-1.861,6.085,0.186c1.398,2.047,1.171,4.752,0.889,7.214c2.807,1.418,4.753,4.406,4.916,7.547
				s-1.464,6.314-4.109,8.015c-3.185,2.048-7.256,1.888-11.035,1.656c-9.23-0.566-18.46-1.133-27.69-1.699
				c-3.238-0.199-6.849-0.575-8.951-3.046c-1.52-1.787-1.855-4.495-0.815-6.599c1.04-2.104,3.395-3.482,5.738-3.359"/>
			<g>
				<path style="fill:#FFA08C;" d="M389.131,114.961c0,12.632,3.248,20.041,20.289,20.041c17.041,0,20.289-7.41,20.289-20.041
					C429.71,88.799,389.131,85.436,389.131,114.961z"/>
				<g>
					<path style="fill:#3B2A42;" d="M399.203,133.805c6.049,2.851,13.09,2.685,19.41,0.834c0.474-0.139,0.27-0.887-0.204-0.741
						c-6.555,2.015-12.625,1.476-19.176-0.163C399.192,133.725,399.162,133.786,399.203,133.805L399.203,133.805z"/>
				</g>
			</g>
			<g>
				<path style="fill:#3B2A42;" d="M403.93,114.933c0,1.097-0.534,1.986-1.192,1.986c-0.658,0-1.192-0.889-1.192-1.986
					c0-1.097,0.534-1.986,1.192-1.986C403.397,112.947,403.93,113.836,403.93,114.933z"/>
				<path style="fill:#3B2A42;" d="M416.831,114.933c0,1.097-0.534,1.986-1.192,1.986c-0.658,0-1.192-0.889-1.192-1.986
					c0-1.097,0.533-1.986,1.192-1.986C416.297,112.947,416.831,113.836,416.831,114.933z"/>
				<g>
					<path style="fill:#3B2A42;" d="M414.198,109.954c0.681-0.269,1.393-0.367,2.117-0.226c0.633,0.123,1.102,0.515,1.693,0.703
						c0.214,0.068,0.438-0.201,0.304-0.395c-0.88-1.263-3.092-1.114-4.321-0.574C413.715,109.583,413.914,110.066,414.198,109.954
						L414.198,109.954z"/>
				</g>
				<g>
					<path style="fill:#3B2A42;" d="M404.851,109.462c-1.229-0.54-3.441-0.689-4.321,0.574c-0.134,0.193,0.088,0.463,0.304,0.395
						c0.591-0.188,1.06-0.58,1.693-0.703c0.724-0.141,1.436-0.043,2.117,0.226C404.924,110.064,405.13,109.585,404.851,109.462
						L404.851,109.462z"/>
				</g>
				<g>
					<path style="fill:#3B2A42;" d="M406.486,123.897c1.229,1.48,4.359,1.832,5.142-0.346c0.097-0.271-0.265-0.425-0.45-0.262
						c-0.631,0.56-1.027,1.15-1.909,1.333c-0.983,0.204-1.934-0.19-2.62-0.888C406.544,123.627,406.393,123.785,406.486,123.897
						L406.486,123.897z"/>
				</g>
				<g>
					<path style="fill:#3B2A42;" d="M409.411,111.188c-0.03,1.474-0.221,2.978-0.596,4.407c-0.212,0.808-0.5,1.611-0.861,2.363
						c-0.157,0.327-0.718,1.041-0.755,1.428c-0.103,1.072,1.233,1.384,2.084,1.699c0.102,0.038,0.171-0.127,0.074-0.175
						c-0.351-0.174-0.847-0.347-1.126-0.629c-0.859-0.864-0.433-1.08-0.057-1.822c0.348-0.686,0.641-1.398,0.871-2.132
						c0.535-1.71,0.621-3.361,0.405-5.138C409.447,111.164,409.412,111.163,409.411,111.188L409.411,111.188z"/>
				</g>
			</g>
			<path style="fill:#3B2A42;" d="M388.215,115.913c1.288,1.219,3.607,0.205,4.297-1.428c0.691-1.633,0.273-3.499-0.153-5.221
				c3.041,0.128,5.835-2.818,5.549-5.847c1.282,1.1,3.12,1.515,4.75,1.073c1.63-0.442,3.007-1.729,3.558-3.325
				c0.608,1.392,1.948,2.438,3.446,2.689s3.106-0.299,4.136-1.415c0.341,1.359,1.451,2.497,2.8,2.873
				c1.35,0.376,2.888-0.023,3.883-1.009c-0.021,2.457,2.354,4.66,4.802,4.455c-0.451,1.812-0.456,3.815,0.433,5.457
				c0.889,1.642,2.824,2.791,4.644,2.373c2.496-0.573,3.598-3.557,3.625-6.118c0.063-6.057-3.619-11.773-8.669-15.119
				c-5.05-3.345-11.284-4.542-17.34-4.411c-4.223,0.092-8.494,0.814-12.277,2.694c-3.783,1.88-7.048,5.001-8.559,8.946
				c-1.511,3.944-1.066,8.715,1.597,11.993c-0.221-0.529-0.443-1.059-0.665-1.588"/>
			<g>
				<g>
					<g>
						<path style="fill:#F2DFD4;" d="M423.227,122.098c1.914-2.463,4.212-5.431,5.05-8.481c0.087-0.318-0.339-0.474-0.514-0.217
							c-0.849,1.25-1.424,2.704-2.204,4.006c-0.866,1.447-1.828,2.83-2.862,4.161C422.404,121.944,422.931,122.479,423.227,122.098
							L423.227,122.098z"/>
					</g>
				</g>
				<g>
					<g>
						<path style="fill:#F2DFD4;" d="M427.007,128.889c2.023-3.21,3.42-6.673,4.188-10.39c0.073-0.355-0.478-0.504-0.542-0.149
							c-0.67,3.705-1.96,7.16-3.889,10.397C426.671,128.903,426.911,129.042,427.007,128.889L427.007,128.889z"/>
					</g>
				</g>
				<g>
					<g>
						<path style="fill:#F2DFD4;" d="M396.143,121.568c-1.035-1.332-1.996-2.714-2.862-4.161c-0.78-1.302-1.355-2.756-2.204-4.006
							c-0.173-0.255-0.602-0.104-0.514,0.217c0.837,3.05,3.134,6.015,5.049,8.481C395.908,122.479,396.436,121.945,396.143,121.568
							L396.143,121.568z"/>
					</g>
				</g>
				<g>
					<g>
						<path style="fill:#F2DFD4;" d="M392.076,128.747c-1.929-3.237-3.219-6.692-3.889-10.397c-0.064-0.353-0.616-0.206-0.542,0.149
							c0.768,3.717,2.165,7.18,4.188,10.39C391.929,129.041,392.169,128.903,392.076,128.747L392.076,128.747z"/>
					</g>
				</g>
				<path style="fill:#7DCABB;" d="M393.86,119.624c0,0,17.426,4.426,30.926,0c0,0-0.388,4.475,3.067,7.078
					c-3.067,11.305-18.82,12.156-18.82,12.156s-17.549-3.856-17.549-11.169C394.2,126.262,393.86,119.624,393.86,119.624z"/>
				<g>
					<g>
						<path style="fill:#3B2A42;" d="M400.045,126.19c5.173,1.996,11.277,2.803,16.635,1.018c0.347-0.116,0.205-0.606-0.15-0.542
							c-5.732,1.036-10.843,1.286-16.436-0.656C399.979,125.969,399.934,126.147,400.045,126.19L400.045,126.19z"/>
					</g>
				</g>
				<g>
					<g>
						<path style="fill:#3B2A42;" d="M403.031,131.871c4.306,1.334,9.008,1.765,13.399,0.557c0.354-0.097,0.202-0.607-0.15-0.542
							c-4.547,0.835-8.689,1.017-13.2-0.196C402.964,131.659,402.916,131.835,403.031,131.871L403.031,131.871z"/>
					</g>
				</g>
			</g>
			<g>
				<g>
					<path style="fill:#FFA08C;" d="M429.465,109.283c2.004-0.645,3.851,0.669,4.336,2.545c1.207,4.672-3.221,8.099-6.389,10.623
						C426.889,120.503,426.391,110.273,429.465,109.283z"/>
					<g>
						<g>
							<path style="fill:#3B2A42;" d="M428.639,116.776c0.235-1.137,0.517-2.316,1.197-3.28c0.716-1.015,1.653-1.284,2.759-1.683
								c0.207-0.074,0.23-0.379,0-0.444c-1.101-0.313-2.18,0.466-2.851,1.295c-0.924,1.141-1.209,2.614-1.401,4.031
								C428.317,116.884,428.598,116.975,428.639,116.776L428.639,116.776z"/>
						</g>
						<g>
							<path style="fill:#3B2A42;" d="M430.224,113.22c0.452,0.231,0.81,0.601,0.993,1.08c0.075,0.196,0.12,0.404,0.128,0.613
								c0.009,0.228-0.038,0.362,0.081,0.564c0.072,0.122,0.262,0.158,0.362,0.047c0.352-0.391,0.054-1.128-0.178-1.528
								c-0.289-0.496-0.732-0.857-1.267-1.057C430.179,112.878,430.069,113.141,430.224,113.22L430.224,113.22z"/>
						</g>
					</g>
				</g>
				<g>
					<path style="fill:#FFA08C;" d="M388.6,109.283c-2.004-0.645-3.851,0.669-4.336,2.545c-1.207,4.672,3.221,8.099,6.389,10.623
						C391.176,120.503,391.674,110.273,388.6,109.283z"/>
					<g>
						<g>
							<path style="fill:#3B2A42;" d="M389.426,116.776c-0.235-1.137-0.516-2.316-1.197-3.28c-0.716-1.015-1.653-1.284-2.759-1.683
								c-0.207-0.074-0.23-0.379,0-0.444c1.101-0.313,2.18,0.466,2.851,1.295c0.924,1.141,1.209,2.614,1.401,4.031
								C389.748,116.884,389.467,116.975,389.426,116.776L389.426,116.776z"/>
						</g>
						<g>
							<path style="fill:#3B2A42;" d="M387.842,113.22c-0.452,0.231-0.81,0.601-0.993,1.08c-0.075,0.196-0.12,0.404-0.128,0.613
								c-0.009,0.228,0.038,0.362-0.081,0.564c-0.072,0.122-0.262,0.158-0.362,0.047c-0.352-0.391-0.054-1.128,0.178-1.528
								c0.289-0.496,0.732-0.857,1.267-1.057C387.886,112.878,387.996,113.141,387.842,113.22L387.842,113.22z"/>
						</g>
					</g>
				</g>
			</g>
		</g>
	</g>
</g>
</svg>
